Coordinates
version=1
nRows=18
nColumns=38
inDegrees=yes

Units are S.I. units (second, meters, Newtons, ...)
Angles are in degrees.

endheader
time	pelvis_tilt	pelvis_list	pelvis_rotation	pelvis_tx	pelvis_ty	pelvis_tz	hip_flexion_r	hip_adduction_r	hip_rotation_r	knee_angle_r	ankle_angle_r	subtalar_angle_r	mtp_angle_r	hip_flexion_l	hip_adduction_l	hip_rotation_l	knee_angle_l	ankle_angle_l	subtalar_angle_l	mtp_angle_l	lumbar_extension	lumbar_bending	lumbar_rotation	arm_flex_r	arm_add_r	arm_rot_r	elbow_flex_r	pro_sup_r	wrist_flex_r	wrist_dev_r	arm_flex_l	arm_add_l	arm_rot_l	elbow_flex_l	pro_sup_l	wrist_flex_l	wrist_dev_l
      6.23500000	      2.11900521	     -3.52759600	     86.59797541	     -0.20196713	      1.04617425	     -0.50762405	     22.33129945	      7.66982525	      3.24093657	    -45.50055026	     20.94413134	      0.00000000	      0.00000000	     22.18092632	     -5.27630339	     -4.55274811	   -104.53756869	     -4.61845834	      0.00000000	      0.00000000	    -20.36134394	      2.62330525	      2.80883273	      0.00000000	      0.00000000	      0.00000000	     90.00000000	     90.00000000	      0.00000000	      0.00000000	      0.00000000	      0.00000000	      0.00000000	     90.00000000	     90.00000000	      0.00000000	      0.00000000
      6.24000000	      2.38936218	     -3.55349889	     86.56532646	     -0.20146842	      1.04648689	     -0.50726245	     21.07916792	      7.96510159	      3.37335394	    -45.02630576	     21.58920020	      0.00000000	      0.00000000	     23.52132919	     -5.81270347	     -4.39713684	   -104.89492891	     -4.24700173	      0.00000000	      0.00000000	    -20.36687788	      2.67735853	      3.79274040	      0.00000000	      0.00000000	      0.00000000	     90.00000000	     90.00000000	      0.00000000	      0.00000000	      0.00000000	      0.00000000	      0.00000000	     90.00000000	     90.00000000	      0.00000000	      0.00000000
      6.24500000	      2.61824723	     -3.61721137	     86.48825097	     -0.20088281	      1.04701995	     -0.50698744	     19.81811064	      8.23611298	      3.59793549	    -44.45520263	     22.11570981	      0.00000000	      0.00000000	     24.85948355	     -6.31078806	     -4.27891532	   -105.07982936	     -3.88179788	      0.00000000	      0.00000000	    -20.30024578	      2.66662038	      4.83229333	      0.00000000	      0.00000000	      0.00000000	     90.00000000	     90.00000000	      0.00000000	      0.00000000	      0.00000000	      0.00000000	      0.00000000	     90.00000000	     90.00000000	      0.00000000	      0.00000000
      6.25000000	      2.79681118	     -3.71829091	     86.36685294	     -0.20017919	      1.04775564	     -0.50678000	     18.55421716	      8.46684128	      3.91472080	    -43.79167177	     22.52561838	      0.00000000	      0.00000000	     26.19401291	     -6.76128510	     -4.20481335	   -105.09365731	     -3.51974437	      0.00000000	      0.00000000	    -20.15797205	      2.58214911	      5.91860083	      0.00000000	      0.00000000	      0.00000000	     90.00000000	     90.00000000	      0.00000000	      0.00000000	      0.00000000	      0.00000000	      0.00000000	     90.00000000	     90.00000000	      0.00000000	      0.00000000
      6.25500000	      2.91736856	     -3.85587833	     86.20509874	     -0.19935850	      1.04869303	     -0.50662283	     17.29127355	      8.64038878	      4.31797499	    -43.03781906	     22.81998488	      0.00000000	      0.00000000	     27.52203050	     -7.15425303	     -4.17877430	   -104.93713456	     -3.15865585	      0.00000000	      0.00000000	    -19.93835317	      2.41794742	      7.03969369	      0.00000000	      0.00000000	      0.00000000	     90.00000000	     90.00000000	      0.00000000	      0.00000000	      0.00000000	      0.00000000	      0.00000000	     90.00000000	     90.00000000	      0.00000000	      0.00000000
      6.26000000	      2.97332281	     -4.02904492	     86.01046960	     -0.19845389	      1.04984398	     -0.50650331	     16.03142126	      8.74111759	      4.79657124	    -42.19556748	     22.99874696	      0.00000000	      0.00000000	     28.83874957	     -7.47969520	     -4.20165266	   -104.61054484	     -2.79731532	      0.00000000	      0.00000000	    -19.64179084	      2.17145900	      8.18108145	      0.00000000	      0.00000000	      0.00000000	     90.00000000	     90.00000000	      0.00000000	      0.00000000	      0.00000000	      0.00000000	      0.00000000	     90.00000000	     90.00000000	      0.00000000	      0.00000000
      6.26500000	      2.95939884	     -4.23664298	     85.79323352	     -0.19751702	      1.05122569	     -0.50641822	     14.77591066	      8.75636362	      5.33468416	    -41.26814054	     23.06066519	      0.00000000	      0.00000000	     30.13754791	     -7.72820281	     -4.27115065	   -104.11403636	     -2.43549377	      0.00000000	      0.00000000	    -19.27092977	      1.84367535	      9.32641699	      0.00000000	      0.00000000	      0.00000000	     90.00000000	     90.00000000	      0.00000000	      0.00000000	      0.00000000	      0.00000000	      0.00000000	     90.00000000	     90.00000000	      0.00000000	      0.00000000
      6.27000000	      2.87221481	     -4.47680493	     85.56550467	     -0.19660084	      1.05285288	     -0.50637809	     13.52587191	      8.67751849	      5.91272088	    -40.26071447	     23.00338313	      0.00000000	      0.00000000	     31.41039669	     -7.89157799	     -4.38201587	   -103.44793021	     -2.07393272	      0.00000000	      0.00000000	    -18.83057549	      1.43890384	     10.45822412	      0.00000000	      0.00000000	      0.00000000	     90.00000000	     90.00000000	      0.00000000	      0.00000000	      0.00000000	      0.00000000	      0.00000000	     90.00000000	     90.00000000	      0.00000000	      0.00000000
      6.27500000	      2.71097188	     -4.74647331	     85.34024618	     -0.19574767	      1.05473276	     -0.50640771	     12.28288061	      8.50048719	      6.50836482	    -39.18031437	     22.82353654	      0.00000000	      0.00000000	     32.64849505	     -7.96341852	     -4.52648021	   -102.61298764	     -1.71427833	      0.00000000	      0.00000000	    -18.32741359	      0.96429101	     11.55864815	      0.00000000	      0.00000000	      0.00000000	     90.00000000	     90.00000000	      0.00000000	      0.00000000	      0.00000000	      0.00000000	      0.00000000	     90.00000000	     90.00000000	      0.00000000	      0.00000000
      6.28000000	      2.47797814	     -5.04130344	     85.13033518	     -0.19498470	      1.05686401	     -0.50654153	     11.04911395	      8.22565559	      7.09760986	    -38.03518142	     22.51685043	      0.00000000	      0.00000000	     33.84296369	     -7.93964378	     -4.69489306	   -101.61060099	     -1.35896301	      0.00000000	      0.00000000	    -17.76957698	      0.42920690	     12.61019516	      0.00000000	      0.00000000	      0.00000000	     90.00000000	     90.00000000	      0.00000000	      0.00000000	      0.00000000	      0.00000000	      0.00000000	     90.00000000	     90.00000000	      0.00000000	      0.00000000
      6.28500000	      2.17882276	     -5.35609150	     84.94776658	     -0.19432502	      1.05923836	     -0.50681429	      9.82702944	      7.85753420	      7.65570734	    -36.83389586	     22.07818527	      0.00000000	      0.00000000	     34.98547981	     -7.81891849	     -4.87648377	   -100.44289781	     -1.01103949	      0.00000000	      0.00000000	    -17.16611907	     -0.15541301	     13.59643272	      0.00000000	      0.00000000	      0.00000000	     90.00000000	     90.00000000	      0.00000000	      0.00000000	      0.00000000	      0.00000000	      0.00000000	     90.00000000	     90.00000000	      0.00000000	      0.00000000
      6.29000000	      1.82213561	     -5.68561180	     84.80302836	     -0.19377154	      1.06184283	     -0.50725045	      8.61872310	      7.40421457	      8.15801233	    -35.58450159	     21.50153039	      0.00000000	      0.00000000	     36.06876032	     -7.60294690	     -5.06016040	    -99.11277452	     -0.67396676	      0.00000000	      0.00000000	    -16.52645606	     -0.77769582	     14.50262904	      0.00000000	      0.00000000	      0.00000000	     90.00000000	     90.00000000	      0.00000000	      0.00000000	      0.00000000	      0.00000000	      0.00000000	     90.00000000	     90.00000000	      0.00000000	      0.00000000
      6.29500000	      1.41895639	     -6.02547922	     84.70464916	     -0.19332222	      1.06466156	     -0.50785838	      7.42533427	      6.87676196	      8.58076505	    -34.29378184	     20.77998308	      0.00000000	      0.00000000	     37.08684867	     -7.29662169	     -5.23525510	    -97.62387167	     -0.35134117	      0.00000000	      0.00000000	    -15.85984132	     -1.42538484	     15.31631197	      0.00000000	      0.00000000	      0.00000000	     90.00000000	     90.00000000	      0.00000000	      0.00000000	      0.00000000	      0.00000000	      0.00000000	     90.00000000	     90.00000000	      0.00000000	      0.00000000
      6.30000000	      0.98183146	     -6.37263590	     84.65889478	     -0.19297550	      1.06767693	     -0.50863241	      6.24684608	      6.28866130	      8.90185469	    -32.96678043	     19.90577731	      0.00000000	      0.00000000	     38.03520894	     -6.90797549	     -5.39216347	    -95.98049306	     -0.04657521	      0.00000000	      0.00000000	    -15.17492703	     -2.08629719	     16.02773093	      0.00000000	      0.00000000	      0.00000000	     90.00000000	     90.00000000	      0.00000000	      0.00000000	      0.00000000	      0.00000000	      0.00000000	     90.00000000	     90.00000000	      0.00000000	      0.00000000
      6.30500000	      0.52387141	     -6.72533851	     84.66958382	     -0.19273384	      1.07086955	     -0.50955970	      5.08236529	      5.65531649	      9.10162480	    -31.60667592	     18.87043855	      0.00000000	      0.00000000	     38.91065273	     -6.44787476	     -5.52283734	    -94.18748116	      0.23745566	      0.00000000	      0.00000000	    -14.47945658	     -2.74867772	     16.63020836	      0.00000000	      0.00000000	      0.00000000	     90.00000000	     90.00000000	      0.00000000	      0.00000000	      0.00000000	      0.00000000	      0.00000000	     90.00000000	     90.00000000	      0.00000000	      0.00000000
      6.31000000	      0.05802053	     -7.08280379	     84.73800352	     -0.19260285	      1.07421713	     -0.51062601	      3.93071396	      4.99349431	      9.16378527	    -30.21512673	     17.66514119	      0.00000000	      0.00000000	     39.71112559	     -5.92944907	     -5.62108344	    -92.25007688	      0.49876143	      0.00000000	      0.00000000	    -13.78011444	     -3.40144639	     17.12036851	      0.00000000	      0.00000000	      0.00000000	     90.00000000	     90.00000000	      0.00000000	      0.00000000	      0.00000000	      0.00000000	      0.00000000	     90.00000000	     90.00000000	      0.00000000	      0.00000000
      6.31500000	     -0.40335710	     -7.44473264	     84.86291283	     -0.19258644	      1.07769306	     -0.51181748	      2.79109964	      4.32065869	      9.07645456	    -28.79314561	     16.28133533	      0.00000000	      0.00000000	     40.43538170	     -5.36731798	     -5.68262881	    -90.17379377	      0.73653329	      0.00000000	      0.00000000	    -13.08254107	     -4.03433844	     17.49823389	      0.00000000	      0.00000000	      0.00000000	     90.00000000	     90.00000000	      0.00000000	      0.00000000	      0.00000000	      0.00000000	      0.00000000	     90.00000000	     90.00000000	      0.00000000	      0.00000000
      6.32000000	     -0.84867374	     -7.81084449	     85.04063705	     -0.19268133	      1.08126542	     -0.51311923	      1.66369936	      3.65426196	      8.83328993	    -27.34244325	     14.71169651	      0.00000000	      0.00000000	     41.08258003	     -4.77675032	     -5.70494062	    -87.96432009	      0.95133779	      0.00000000	      0.00000000	    -12.39149881	     -4.63794098	     17.76718322	      0.00000000	      0.00000000	      0.00000000	     90.00000000	     90.00000000	      0.00000000	      0.00000000	      0.00000000	      0.00000000	      0.00000000	     90.00000000	     90.00000000	      0.00000000	      0.00000000
